<?xml version="1.0" encoding="UTF-8"?>
<svg version="1.1" xmlns="http://www.w3.org/2000/svg" width="800" height="800">
<path d="M0 0 C0.84691406 -0.01611328 1.69382813 -0.03222656 2.56640625 -0.04882812 C15.56348427 -0.05877995 27.12540804 5.89356138 36.375 14.8125 C44.10242255 22.5745414 50.23034868 33.03488789 50.2668457 44.15966797 C50.27739738 45.97094681 50.27739738 45.97094681 50.28816223 47.81881714 C50.29232651 49.13415436 50.29649078 50.44949158 50.30078125 51.8046875 C50.31123269 53.18825016 50.32265971 54.57180575 50.33500671 55.95535278 C50.38701081 61.8097136 50.43500186 67.66397002 50.45092773 73.51855469 C50.5320316 99.44837525 52.2041015 125.17200495 59.125 150.3125 C59.51896973 151.75036865 59.51896973 151.75036865 59.92089844 153.21728516 C64.24759892 168.6189046 69.37101196 183.33744008 79.92578125 195.64453125 C82.125 198.3125 82.125 198.3125 82.125 200.3125 C83.115 200.6425 84.105 200.9725 85.125 201.3125 C85.125 201.9725 85.125 202.6325 85.125 203.3125 C85.71410156 203.59351563 86.30320312 203.87453125 86.91015625 204.1640625 C88.93696922 205.21500256 90.69547005 206.3818265 92.5625 207.6875 C103.59659378 214.67162677 116.38472506 215.47730358 129.0625 215.375 C130.12791016 215.37048828 131.19332031 215.36597656 132.29101562 215.36132812 C134.90240291 215.34961787 137.51367124 215.33321724 140.125 215.3125 C140.125 214.6525 140.125 213.9925 140.125 213.3125 C143.425 212.6525 146.725 211.9925 150.125 211.3125 C150.125 210.6525 150.125 209.9925 150.125 209.3125 C152.105 209.3125 154.085 209.3125 156.125 209.3125 C156.125 208.6525 156.125 207.9925 156.125 207.3125 C157.445 207.3125 158.765 207.3125 160.125 207.3125 C160.125 206.6525 160.125 205.9925 160.125 205.3125 C161.445 205.3125 162.765 205.3125 164.125 205.3125 C164.125 204.6525 164.125 203.9925 164.125 203.3125 C165.445 203.3125 166.765 203.3125 168.125 203.3125 C168.125 202.6525 168.125 201.9925 168.125 201.3125 C169.445 201.3125 170.765 201.3125 172.125 201.3125 C172.125 200.6525 172.125 199.9925 172.125 199.3125 C172.785 199.3125 173.445 199.3125 174.125 199.3125 C174.125 198.6525 174.125 197.9925 174.125 197.3125 C174.785 197.3125 175.445 197.3125 176.125 197.3125 C176.125 196.6525 176.125 195.9925 176.125 195.3125 C174.145 195.3125 172.165 195.3125 170.125 195.3125 C170.125 195.9725 170.125 196.6325 170.125 197.3125 C168.805 197.3125 167.485 197.3125 166.125 197.3125 C166.125 197.9725 166.125 198.6325 166.125 199.3125 C161.80171196 199.3869013 157.47876745 199.44121968 153.1550293 199.47729492 C151.68556218 199.49234066 150.21613966 199.51278238 148.74682617 199.53881836 C146.6292823 199.57538955 144.51233435 199.59226801 142.39453125 199.60546875 C141.12198486 199.6211792 139.84943848 199.63688965 138.53833008 199.65307617 C134.86919817 199.28697654 133.19059254 198.23312404 130.125 196.3125 C126.36684142 197.01635399 126.36684142 197.01635399 123.125 198.3125 C123.06570313 197.58417969 123.00640625 196.85585938 122.9453125 196.10546875 C121.84526689 192.36007537 119.99305879 191.09203074 117 188.625 C104.66159833 177.98465361 99.51692628 165.75424472 98.25 149.79296875 C97.61921654 136.96794471 103.13805403 125.23552682 111.12109375 115.4765625 C120.65329107 105.18253264 132.62879091 99.07993936 146.59765625 98.05859375 C161.19622744 97.59821155 171.24263209 102.39092139 183.125 110.3125 C183.125 110.9725 183.125 111.6325 183.125 112.3125 C183.99318359 112.65861328 183.99318359 112.65861328 184.87890625 113.01171875 C193.19156102 117.82583012 197.76362936 129.46753844 200.125 138.3125 C202.50811538 152.56415712 200.29533063 166.55874374 191.8671875 178.515625 C189.70395652 181.22835839 187.58109488 183.86123046 185.125 186.3125 C184.465 186.3125 183.805 186.3125 183.125 186.3125 C183.125 186.9725 183.125 187.6325 183.125 188.3125 C182.135 188.9725 181.145 189.6325 180.125 190.3125 C180.125 191.6325 180.125 192.9525 180.125 194.3125 C184.75707493 192.98905002 188.16116642 191.01511381 192.125 188.3125 C192.785 188.3125 193.445 188.3125 194.125 188.3125 C194.125 187.6525 194.125 186.9925 194.125 186.3125 C195.7421875 185.12109375 195.7421875 185.12109375 198 183.75 C202.73182844 180.71505159 206.75818969 177.19073377 210.86328125 173.36328125 C216.43357143 168.3125 216.43357143 168.3125 219.125 168.3125 C219.455 167.3225 219.785 166.3325 220.125 165.3125 C220.785 165.3125 221.445 165.3125 222.125 165.3125 C222.455 164.3225 222.785 163.3325 223.125 162.3125 C223.785 162.3125 224.445 162.3125 225.125 162.3125 C225.455 161.3225 225.785 160.3325 226.125 159.3125 C226.785 159.3125 227.445 159.3125 228.125 159.3125 C228.455 158.3225 228.785 157.3325 229.125 156.3125 C229.785 156.3125 230.445 156.3125 231.125 156.3125 C231.35960937 155.75820313 231.59421875 155.20390625 231.8359375 154.6328125 C233.44954292 151.72832275 235.47223795 149.60629995 237.75 147.1875 C246.01993486 138.26900141 253.82701008 128.66442678 260.3515625 118.37890625 C267.18364783 107.7375647 278.32577501 101.40956081 290.38671875 98.53515625 C303.73042676 96.11907658 315.71021781 97.88305677 327.125 105.4375 C328.4641418 106.38769988 329.79824756 107.34507635 331.125 108.3125 C332.115 108.9725 333.105 109.6325 334.125 110.3125 C334.125 110.9725 334.125 111.6325 334.125 112.3125 C334.7128125 112.539375 335.300625 112.76625 335.90625 113 C342.91037484 117.14328512 346.712595 127.84995046 349.125 135.3125 C352.1355205 147.354582 349.49804684 160.07247558 343.69140625 170.87109375 C335.53483237 183.58395827 323.02767483 190.59502898 310.32080078 198.02197266 C307.994988 199.38891132 305.68357888 200.77861838 303.37109375 202.16796875 C290.98884612 209.51607119 278.25548764 215.48145655 264.99829102 221.07714844 C262.14939575 222.30201122 259.33412072 223.58520309 256.51953125 224.88671875 C210.8463884 245.76855148 148.08646882 261.2675858 99.0234375 243.82421875 C84.94884357 238.49118252 70.33325852 232.19780058 58.125 223.3125 C58.125 222.6525 58.125 221.9925 58.125 221.3125 C57.38403076 221.04244141 56.64306152 220.77238281 55.87963867 220.49414062 C53.24181251 219.36260835 51.3132306 218.15145047 49.05078125 216.40625 C48.30513916 215.83165039 47.55949707 215.25705078 46.79125977 214.66503906 C46.01451904 214.05370117 45.23777832 213.44236328 44.4375 212.8125 C43.63820068 212.18827148 42.83890137 211.56404297 42.01538086 210.92089844 C36.62474939 206.65215282 31.68220654 202.22000044 26.97265625 197.203125 C25.07158642 195.12712121 25.07158642 195.12712121 22.125 193.3125 C22.125 192.6525 22.125 191.9925 22.125 191.3125 C21.465 191.3125 20.805 191.3125 20.125 191.3125 C18.78515625 189.984375 18.78515625 189.984375 17.1875 188.0625 C14.2055007 184.53831901 11.1088872 181.16720438 7.9375 177.8125 C-6.80702111 161.92140979 -18.64116616 143.34634696 -28.875 124.3125 C-29.46925781 123.23097656 -30.06351563 122.14945312 -30.67578125 121.03515625 C-42.15422851 99.26568732 -50.18252465 75.33826576 -50.4375 50.625 C-50.45240479 49.5623291 -50.46730957 48.4996582 -50.48266602 47.40478516 C-50.30261725 33.85957783 -44.88021201 23.8525606 -35.77734375 14.0546875 C-25.76550575 4.49710712 -13.69338313 -0.05163417 0 0 Z " fill="#9C1838" transform="translate(230.875,121.6875)"/>
<path d="M0 0 C2.28490877 1.20281781 4.58744293 2.36768923 6.89208984 3.53222656 C53.98533632 27.49764159 53.98533632 27.49764159 63.17724609 51.05957031 C66.98982939 64.85320892 64.33919666 77.55736655 58.00537109 90.05566406 C51.16061041 101.51240254 39.54262246 109.3533397 26.73583984 112.63769531 C10.83699605 115.07142391 -3.27878314 112.33202836 -16.49462891 103.11816406 C-22.04489222 98.62137779 -25.75307048 92.71819907 -29.73291016 86.87548828 C-40.79107981 70.92587593 -53.95433685 54.34731742 -68.86572266 41.87597656 C-71.49512663 39.62771555 -73.97999851 37.24403289 -76.49462891 34.86816406 C-96.61861005 16.24625998 -121.30202586 0.05096693 -147.99462891 -6.94433594 C-148.73326172 -7.16863281 -149.47189453 -7.39292969 -150.23291016 -7.62402344 C-163.26313 -11.20672042 -180.195335 -9.8816009 -192.03369141 -3.28808594 C-210.81239641 9.58019 -219.2263431 30.89929751 -224.99462891 52.05566406 C-225.17977051 52.72098145 -225.36491211 53.38629883 -225.55566406 54.07177734 C-231.74929548 76.95977048 -234.40624209 101.4568017 -234.52587891 125.11816406 C-234.52984114 125.89912004 -234.53380337 126.68007603 -234.53788567 127.48469734 C-234.5565543 133.00857941 -234.53035535 138.53190439 -234.49462891 144.05566406 C-234.45899094 149.67392677 -234.44040827 155.29128177 -234.4627533 160.90963745 C-234.46335768 163.10360907 -234.43461857 165.29578245 -234.40393066 167.48950195 C-234.35362599 181.84080472 -239.27590607 191.82852236 -248.95166016 202.14160156 C-259.86749902 212.71315608 -273.47434951 217.50839597 -288.41723633 217.41699219 C-302.60123515 217.06104976 -314.58833982 211.03240085 -324.36962891 200.80566406 C-332.47242053 191.03167166 -336.39715682 179.81926868 -336.30712891 167.24316406 C-336.30293945 166.42565674 -336.29875 165.60814941 -336.29443359 164.76586914 C-336.04339942 150.79741967 -333.26779991 137.32574953 -328.99462891 124.05566406 C-328.56978214 122.66905789 -328.14532222 121.28233315 -327.72119141 119.89550781 C-322.3357308 102.67118763 -314.5873822 86.56560024 -305.93017578 70.76660156 C-305.15445099 69.34794829 -304.39297606 67.92151387 -303.63525391 66.49316406 C-293.71898457 48.01901846 -280.93493145 30.67261805 -266.99462891 15.05566406 C-266.52782715 14.53246582 -266.06102539 14.00926758 -265.58007812 13.47021484 C-252.54188298 -1.06948284 -252.54188298 -1.06948284 -247.99462891 -4.94433594 C-247.33462891 -4.94433594 -246.67462891 -4.94433594 -245.99462891 -4.94433594 C-245.99462891 -5.60433594 -245.99462891 -6.26433594 -245.99462891 -6.94433594 C-177.18560601 -71.6311593 -74.32932603 -39.5089107 0 0 Z " fill="#9C1838" transform="translate(565.99462890625,449.9443359375)"/>
<path d="M0 0 C0.66 0 1.32 0 2 0 C2 0.66 2 1.32 2 2 C1.01 2.66 0.02 3.32 -1 4 C-1 5.32 -1 6.64 -1 8 C0.65 8 2.3 8 4 8 C0.18206691 12.24353875 -5.00361891 14.39888775 -10 17 C-11.08410156 17.56847656 -12.16820312 18.13695312 -13.28515625 18.72265625 C-21.6072695 23 -21.6072695 23 -25 23 C-25 22.34 -25 21.68 -25 21 C-23.68 21 -22.36 21 -21 21 C-21 20.34 -21 19.68 -21 19 C-19.68 19 -18.36 19 -17 19 C-17 18.34 -17 17.68 -17 17 C-15.68 17 -14.36 17 -13 17 C-13 16.34 -13 15.68 -13 15 C-11.68 15 -10.36 15 -9 15 C-9 14.34 -9 13.68 -9 13 C-8.34 13 -7.68 13 -7 13 C-7 12.34 -7 11.68 -7 11 C-6.34 11 -5.68 11 -5 11 C-5 10.34 -5 9.68 -5 9 C-6.98 9 -8.96 9 -11 9 C-11 9.66 -11 10.32 -11 11 C-12.32 11 -13.64 11 -15 11 C-15 11.66 -15 12.32 -15 13 C-19.37821909 13.0740719 -23.75610782 13.12856375 -28.13476562 13.16479492 C-29.62473909 13.179896 -31.11466801 13.20037858 -32.60449219 13.22631836 C-34.7442523 13.26264584 -36.88342566 13.27971221 -39.0234375 13.29296875 C-40.31169434 13.3086792 -41.59995117 13.32438965 -42.92724609 13.34057617 C-43.94125488 13.22818604 -44.95526367 13.1157959 -46 13 C-46.66 12.01 -47.32 11.02 -48 10 C-47.32195312 10.0721875 -46.64390625 10.144375 -45.9453125 10.21875 C-30.04964632 11.80391339 -15.75677152 11.14570551 -2 2 C-1.34 1.34 -0.68 0.68 0 0 Z " fill="#F3E4E9" transform="translate(412,308)"/>
<path d="M0 0 C-0.33 1.32 -0.66 2.64 -1 4 C-5.37821909 4.0740719 -9.75610782 4.12856375 -14.13476562 4.16479492 C-15.62473909 4.179896 -17.11466801 4.20037858 -18.60449219 4.22631836 C-20.7442523 4.26264584 -22.88342566 4.27971221 -25.0234375 4.29296875 C-26.31169434 4.3086792 -27.59995117 4.32438965 -28.92724609 4.34057617 C-29.94125488 4.22818604 -30.95526367 4.1157959 -32 4 C-32.66 3.01 -33.32 2.02 -34 1 C-33.32195312 1.0721875 -32.64390625 1.144375 -31.9453125 1.21875 C-22.35989367 2.17463664 -13.72354864 2.37527131 -4.25 0.4375 C-2 0 -2 0 0 0 Z " fill="#EED4DB" transform="translate(398,317)"/>
<path d="M0 0 C0.9993453 2.9980359 1.0357628 4.51957745 0.80859375 7.60546875 C0.75123047 8.50716797 0.69386719 9.40886719 0.63476562 10.33789062 C0.50458169 12.21846851 0.36927163 14.09869946 0.22851562 15.97851562 C-0.13248429 21.82505452 0.31134969 26.38972224 2 32 C2.3564309 33.99601306 2.69922675 35.994845 3 38 C-2.80372545 31.66866314 -3.11029908 21.18051536 -3 13 C-2.27677384 8.57719387 -1.24647634 4.30280816 0 0 Z " fill="#D6A7B1" transform="translate(332,254)"/>
<path d="M0 0 C0.33 0.66 0.66 1.32 1 2 C-3.60136502 7.53601728 -8.46398272 12.39863498 -14 17 C-14 14 -14 14 -12.71484375 12.37426758 C-12.12832031 11.80345459 -11.54179687 11.2326416 -10.9375 10.64453125 C-10.30585938 10.02255859 -9.67421875 9.40058594 -9.0234375 8.75976562 C-8.35570312 8.11716797 -7.68796875 7.47457031 -7 6.8125 C-6.33226562 6.15830078 -5.66453125 5.50410156 -4.9765625 4.83007812 C-3.32421559 3.21313865 -1.66528399 1.60359509 0 0 Z " fill="#C47388" transform="translate(317,446)"/>
<path d="M0 0 C3.79049707 1.42749981 7.27122456 3.16236542 10.8125 5.125 C12.27623047 5.93324219 12.27623047 5.93324219 13.76953125 6.7578125 C14.50558594 7.16773438 15.24164063 7.57765625 16 8 C12.69246505 9.10251165 9.35433109 10.05066101 6 11 C5.9071875 9.948125 5.9071875 9.948125 5.8125 8.875 C4.70798798 4.9667267 2.71769008 2.99642752 0 0 Z " fill="#F0DDE1" transform="translate(348,309)"/>
<path d="M0 0 C1.98 0 3.96 0 6 0 C3.0716873 1.95220847 0.13685675 3.5335065 -3 5.125 C-4.5778125 5.93324219 -4.5778125 5.93324219 -6.1875 6.7578125 C-9 8 -9 8 -12 8 C-12 7.34 -12 6.68 -12 6 C-10.68 6 -9.36 6 -8 6 C-8 5.34 -8 4.68 -8 4 C-6.68 4 -5.36 4 -4 4 C-4 3.34 -4 2.68 -4 2 C-2.68 2 -1.36 2 0 2 C0 1.34 0 0.68 0 0 Z " fill="#EFDEE2" transform="translate(399,323)"/>
<path d="M0 0 C1.98 0 3.96 0 6 0 C5 2 5 2 2.12890625 3.0703125 C0.95199219 3.41835938 -0.22492188 3.76640625 -1.4375 4.125 C-3.19900391 4.65480469 -3.19900391 4.65480469 -4.99609375 5.1953125 C-8 6 -8 6 -10 6 C-10 5.34 -10 4.68 -10 4 C-6.7 3.34 -3.4 2.68 0 2 C0 1.34 0 0.68 0 0 Z " fill="#EBCDD6" transform="translate(381,331)"/>
<path d="M0 0 C0.66 0.33 1.32 0.66 2 1 C0.71520959 2.50589388 -0.57804082 4.00457375 -1.875 5.5 C-2.95394531 6.75296875 -2.95394531 6.75296875 -4.0546875 8.03125 C-4.69664062 8.6809375 -5.33859375 9.330625 -6 10 C-6.66 10 -7.32 10 -8 10 C-6.34908222 5.70761377 -3.26245434 3.1206085 0 0 Z " fill="#BD667B" transform="translate(199,132)"/>
</svg>
